<svg width="265" height="56" viewBox="0 0 265 56" fill="none" xmlns="http://www.w3.org/2000/svg">
<path d="M58.924 42H50.02C46.66 42 44.224 41.356 42.712 40.068C41.228 38.752 40.486 36.624 40.486 33.684V12.096H46.324V33.684C46.324 34.86 46.59 35.672 47.122 36.12C47.654 36.568 48.62 36.792 50.02 36.792H58.924V42ZM65.9298 8.862C67.2458 8.862 68.0998 9.072 68.4918 9.492C68.8838 9.884 69.0798 10.738 69.0798 12.054C69.0798 13.342 68.8698 14.196 68.4498 14.616C68.0578 15.008 67.2038 15.204 65.8878 15.204C64.5998 15.204 63.7458 14.994 63.3258 14.574C62.9338 14.154 62.7378 13.3 62.7378 12.012C62.7378 10.724 62.9338 9.884 63.3258 9.492C63.7458 9.072 64.6138 8.862 65.9298 8.862ZM68.6178 42H63.1578V18.9H68.6178V42ZM84.9722 42.042L80.2262 42C78.1262 42 76.5302 41.384 75.4382 40.152C74.3742 38.92 73.8422 37.45 73.8422 35.742V10.416H79.3022V21L85.8122 17.976C88.3042 17.976 90.1382 18.648 91.3142 19.992C92.3502 21.196 92.9942 23.142 93.2462 25.83C93.3302 26.95 93.3722 28.336 93.3722 29.988C93.3722 38.024 90.5722 42.042 84.9722 42.042ZM80.6882 37.338H83.3762C86.4002 37.338 87.9122 34.888 87.9122 29.988C87.9122 27.496 87.6742 25.76 87.1982 24.78C86.7502 23.8 85.7562 23.31 84.2162 23.31L79.3022 25.956V35.406C79.3022 36.526 79.7642 37.17 80.6882 37.338ZM110.952 18.102L109.44 23.478C109.02 23.31 108.544 23.226 108.012 23.226C106.612 23.226 104.89 23.828 102.846 25.032V42H97.3862V18.018H101.46L102.72 20.118L108.516 17.724C108.796 17.696 109.174 17.682 109.65 17.682C110.126 17.682 110.56 17.822 110.952 18.102ZM127.569 31.164V28.98C127.569 26.908 127.261 25.326 126.645 24.234C126.057 23.142 124.811 22.596 122.907 22.596C119.827 22.596 118.287 24.668 118.287 28.812V30.996C118.287 35.448 119.827 37.674 122.907 37.674C124.895 37.674 126.197 36.932 126.813 35.448C127.317 34.272 127.569 32.844 127.569 31.164ZM133.029 29.904C133.029 35.084 132.049 38.556 130.089 40.32C128.437 41.832 126.043 42.588 122.907 42.588C118.903 42.588 116.201 41.412 114.801 39.06C113.485 36.904 112.827 33.852 112.827 29.904C112.827 26.208 113.485 23.31 114.801 21.21C116.257 18.858 118.903 17.682 122.739 17.682C126.603 17.682 129.277 18.718 130.761 20.79C132.273 22.834 133.029 25.872 133.029 29.904ZM157.262 17.304H149.24V42H143.402V17.304H135.422V12.096H157.262V17.304ZM179.366 31.29H165.38C165.38 33.474 165.716 35.07 166.388 36.078C167.088 37.086 168.474 37.59 170.546 37.59C171.89 37.59 172.884 37.17 173.528 36.33C174.172 35.462 174.494 34.636 174.494 33.852H179.408C179.408 36.848 178.596 39.046 176.972 40.446C175.376 41.846 173.248 42.546 170.588 42.546C167.956 42.546 165.912 42.168 164.456 41.412C161.46 39.872 159.962 35.784 159.962 29.148C159.962 25.2 160.816 22.316 162.524 20.496C164.232 18.648 166.836 17.724 170.336 17.724C176.412 17.724 179.45 21.098 179.45 27.846C179.45 28.574 179.422 29.722 179.366 31.29ZM165.506 27.552H174.494C174.494 25.704 174.144 24.36 173.444 23.52C172.744 22.68 171.666 22.26 170.21 22.26C168.782 22.26 167.634 22.694 166.766 23.562C165.926 24.402 165.506 25.732 165.506 27.552ZM200.906 42H197.252L195.572 39.102L189.734 42.252C186.486 42.252 184.302 41.076 183.182 38.724C182.622 37.576 182.23 36.344 182.006 35.028C181.81 33.684 181.712 32.298 181.712 30.87C181.712 29.414 181.726 28.35 181.754 27.678C181.782 26.978 181.852 26.18 181.964 25.284C182.076 24.36 182.23 23.59 182.426 22.974C182.65 22.358 182.958 21.728 183.35 21.084C183.742 20.412 184.218 19.88 184.778 19.488C186.038 18.62 187.676 18.186 189.692 18.186H195.446L200.906 17.85V42ZM195.446 34.356V23.1H191.288C189.748 23.1 188.67 23.688 188.054 24.864C187.466 26.04 187.172 27.804 187.172 30.156C187.172 32.48 187.452 34.118 188.012 35.07C188.6 36.022 189.692 36.498 191.288 36.498L195.446 34.356ZM219.1 33.222L224.056 33.18C224.028 33.404 224 33.81 223.972 34.398C223.944 34.986 223.916 35.392 223.888 35.616C223.888 35.812 223.86 36.134 223.804 36.582C223.748 37.03 223.678 37.366 223.594 37.59C223.538 37.786 223.454 38.052 223.342 38.388C222.838 39.844 221.466 40.992 219.226 41.832C217.798 42.336 216.3 42.588 214.732 42.588C213.192 42.588 211.792 42.336 210.532 41.832C209.272 41.328 208.278 40.684 207.55 39.9C205.898 38.164 205.072 34.916 205.072 30.156C205.072 25.368 205.898 22.106 207.55 20.37C208.278 19.586 209.272 18.942 210.532 18.438C211.792 17.934 213.192 17.682 214.732 17.682C217.756 17.682 220.052 18.438 221.62 19.95C223.188 21.462 223.972 23.562 223.972 26.25H219.016C219.016 25.018 218.708 24.108 218.092 23.52C217.476 22.904 216.328 22.596 214.648 22.596C212.996 22.596 211.89 23.114 211.33 24.15C210.798 25.186 210.532 26.74 210.532 28.812V30.996C210.532 34.328 211.176 36.372 212.464 37.128C213.052 37.492 213.822 37.674 214.774 37.674C215.726 37.674 216.496 37.59 217.084 37.422C217.7 37.226 218.134 36.904 218.386 36.456C218.666 36.008 218.848 35.574 218.932 35.154C219.016 34.706 219.072 34.062 219.1 33.222ZM247.137 42H241.677V26.964C241.677 24.388 240.669 23.1 238.653 23.1L233.445 25.158V42H227.985V10.416H233.445V20.874L240.375 17.766C242.839 17.766 244.575 18.466 245.583 19.866C246.619 21.266 247.137 23.226 247.137 25.746V42Z" fill="#850000"/>
<g clip-path="url(#clip0_172_2)">
<path d="M6.85714 9C3.07143 9 0 11.6875 0 15V35C0 38.3125 3.07143 41 6.85714 41H27.4286H29.7143C30.9786 41 32 40.1063 32 39C32 37.8937 30.9786 37 29.7143 37V33C30.9786 33 32 32.1063 32 31V11C32 9.89375 30.9786 9 29.7143 9H27.4286H6.85714ZM6.85714 33H25.1429V37H6.85714C5.59286 37 4.57143 36.1063 4.57143 35C4.57143 33.8937 5.59286 33 6.85714 33ZM9.14286 18C9.14286 17.45 9.65714 17 10.2857 17H24C24.6286 17 25.1429 17.45 25.1429 18C25.1429 18.55 24.6286 19 24 19H10.2857C9.65714 19 9.14286 18.55 9.14286 18ZM10.2857 21H24C24.6286 21 25.1429 21.45 25.1429 22C25.1429 22.55 24.6286 23 24 23H10.2857C9.65714 23 9.14286 22.55 9.14286 22C9.14286 21.45 9.65714 21 10.2857 21Z" fill="#850000"/>
</g>
<defs>
<clipPath id="clip0_172_2">
<rect width="32" height="32" fill="white" transform="translate(0 9)"/>
</clipPath>
</defs>
</svg>
