<svg width="274" height="58" viewBox="0 0 274 58" fill="none" xmlns="http://www.w3.org/2000/svg">
<rect width="266" height="56" rx="5" fill="#850000"/>
<path d="M67.924 44H59.02C55.66 44 53.224 43.356 51.712 42.068C50.228 40.752 49.486 38.624 49.486 35.684V14.096H55.324V35.684C55.324 36.86 55.59 37.672 56.122 38.12C56.654 38.568 57.62 38.792 59.02 38.792H67.924V44ZM74.9298 10.862C76.2458 10.862 77.0998 11.072 77.4918 11.492C77.8838 11.884 78.0798 12.738 78.0798 14.054C78.0798 15.342 77.8698 16.196 77.4498 16.616C77.0578 17.008 76.2038 17.204 74.8878 17.204C73.5998 17.204 72.7458 16.994 72.3258 16.574C71.9338 16.154 71.7378 15.3 71.7378 14.012C71.7378 12.724 71.9338 11.884 72.3258 11.492C72.7458 11.072 73.6138 10.862 74.9298 10.862ZM77.6178 44H72.1578V20.9H77.6178V44ZM93.9722 44.042L89.2262 44C87.1262 44 85.5302 43.384 84.4382 42.152C83.3742 40.92 82.8422 39.45 82.8422 37.742V12.416H88.3022V23L94.8122 19.976C97.3042 19.976 99.1382 20.648 100.314 21.992C101.35 23.196 101.994 25.142 102.246 27.83C102.33 28.95 102.372 30.336 102.372 31.988C102.372 40.024 99.5722 44.042 93.9722 44.042ZM89.6882 39.338H92.3762C95.4002 39.338 96.9122 36.888 96.9122 31.988C96.9122 29.496 96.6742 27.76 96.1982 26.78C95.7502 25.8 94.7562 25.31 93.2162 25.31L88.3022 27.956V37.406C88.3022 38.526 88.7642 39.17 89.6882 39.338ZM119.952 20.102L118.44 25.478C118.02 25.31 117.544 25.226 117.012 25.226C115.612 25.226 113.89 25.828 111.846 27.032V44H106.386V20.018H110.46L111.72 22.118L117.516 19.724C117.796 19.696 118.174 19.682 118.65 19.682C119.126 19.682 119.56 19.822 119.952 20.102ZM136.569 33.164V30.98C136.569 28.908 136.261 27.326 135.645 26.234C135.057 25.142 133.811 24.596 131.907 24.596C128.827 24.596 127.287 26.668 127.287 30.812V32.996C127.287 37.448 128.827 39.674 131.907 39.674C133.895 39.674 135.197 38.932 135.813 37.448C136.317 36.272 136.569 34.844 136.569 33.164ZM142.029 31.904C142.029 37.084 141.049 40.556 139.089 42.32C137.437 43.832 135.043 44.588 131.907 44.588C127.903 44.588 125.201 43.412 123.801 41.06C122.485 38.904 121.827 35.852 121.827 31.904C121.827 28.208 122.485 25.31 123.801 23.21C125.257 20.858 127.903 19.682 131.739 19.682C135.603 19.682 138.277 20.718 139.761 22.79C141.273 24.834 142.029 27.872 142.029 31.904ZM166.262 19.304H158.24V44H152.402V19.304H144.422V14.096H166.262V19.304ZM188.366 33.29H174.38C174.38 35.474 174.716 37.07 175.388 38.078C176.088 39.086 177.474 39.59 179.546 39.59C180.89 39.59 181.884 39.17 182.528 38.33C183.172 37.462 183.494 36.636 183.494 35.852H188.408C188.408 38.848 187.596 41.046 185.972 42.446C184.376 43.846 182.248 44.546 179.588 44.546C176.956 44.546 174.912 44.168 173.456 43.412C170.46 41.872 168.962 37.784 168.962 31.148C168.962 27.2 169.816 24.316 171.524 22.496C173.232 20.648 175.836 19.724 179.336 19.724C185.412 19.724 188.45 23.098 188.45 29.846C188.45 30.574 188.422 31.722 188.366 33.29ZM174.506 29.552H183.494C183.494 27.704 183.144 26.36 182.444 25.52C181.744 24.68 180.666 24.26 179.21 24.26C177.782 24.26 176.634 24.694 175.766 25.562C174.926 26.402 174.506 27.732 174.506 29.552ZM209.906 44H206.252L204.572 41.102L198.734 44.252C195.486 44.252 193.302 43.076 192.182 40.724C191.622 39.576 191.23 38.344 191.006 37.028C190.81 35.684 190.712 34.298 190.712 32.87C190.712 31.414 190.726 30.35 190.754 29.678C190.782 28.978 190.852 28.18 190.964 27.284C191.076 26.36 191.23 25.59 191.426 24.974C191.65 24.358 191.958 23.728 192.35 23.084C192.742 22.412 193.218 21.88 193.778 21.488C195.038 20.62 196.676 20.186 198.692 20.186H204.446L209.906 19.85V44ZM204.446 36.356V25.1H200.288C198.748 25.1 197.67 25.688 197.054 26.864C196.466 28.04 196.172 29.804 196.172 32.156C196.172 34.48 196.452 36.118 197.012 37.07C197.6 38.022 198.692 38.498 200.288 38.498L204.446 36.356ZM228.1 35.222L233.056 35.18C233.028 35.404 233 35.81 232.972 36.398C232.944 36.986 232.916 37.392 232.888 37.616C232.888 37.812 232.86 38.134 232.804 38.582C232.748 39.03 232.678 39.366 232.594 39.59C232.538 39.786 232.454 40.052 232.342 40.388C231.838 41.844 230.466 42.992 228.226 43.832C226.798 44.336 225.3 44.588 223.732 44.588C222.192 44.588 220.792 44.336 219.532 43.832C218.272 43.328 217.278 42.684 216.55 41.9C214.898 40.164 214.072 36.916 214.072 32.156C214.072 27.368 214.898 24.106 216.55 22.37C217.278 21.586 218.272 20.942 219.532 20.438C220.792 19.934 222.192 19.682 223.732 19.682C226.756 19.682 229.052 20.438 230.62 21.95C232.188 23.462 232.972 25.562 232.972 28.25H228.016C228.016 27.018 227.708 26.108 227.092 25.52C226.476 24.904 225.328 24.596 223.648 24.596C221.996 24.596 220.89 25.114 220.33 26.15C219.798 27.186 219.532 28.74 219.532 30.812V32.996C219.532 36.328 220.176 38.372 221.464 39.128C222.052 39.492 222.822 39.674 223.774 39.674C224.726 39.674 225.496 39.59 226.084 39.422C226.7 39.226 227.134 38.904 227.386 38.456C227.666 38.008 227.848 37.574 227.932 37.154C228.016 36.706 228.072 36.062 228.1 35.222ZM256.137 44H250.677V28.964C250.677 26.388 249.669 25.1 247.653 25.1L242.445 27.158V44H236.985V12.416H242.445V22.874L249.375 19.766C251.839 19.766 253.575 20.466 254.583 21.866C255.619 23.266 256.137 25.226 256.137 27.746V44Z" fill="white"/>
<g clip-path="url(#clip0_172_17)">
<path d="M15.8571 12C12.0714 12 9 14.6875 9 18V38C9 41.3125 12.0714 44 15.8571 44H36.4286H38.7143C39.9786 44 41 43.1063 41 42C41 40.8937 39.9786 40 38.7143 40V36C39.9786 36 41 35.1063 41 34V14C41 12.8937 39.9786 12 38.7143 12H36.4286H15.8571ZM15.8571 36H34.1429V40H15.8571C14.5929 40 13.5714 39.1063 13.5714 38C13.5714 36.8937 14.5929 36 15.8571 36ZM18.1429 21C18.1429 20.45 18.6571 20 19.2857 20H33C33.6286 20 34.1429 20.45 34.1429 21C34.1429 21.55 33.6286 22 33 22H19.2857C18.6571 22 18.1429 21.55 18.1429 21ZM19.2857 24H33C33.6286 24 34.1429 24.45 34.1429 25C34.1429 25.55 33.6286 26 33 26H19.2857C18.6571 26 18.1429 25.55 18.1429 25C18.1429 24.45 18.6571 24 19.2857 24Z" fill="white"/>
</g>
<defs>
<clipPath id="clip0_172_17">
<rect width="32" height="32" fill="white" transform="translate(9 12)"/>
</clipPath>
</defs>
</svg>
