<svg width="241" height="38" viewBox="0 0 241 38" fill="none" xmlns="http://www.w3.org/2000/svg">
<path d="M0.9375 2.01562C1.84375 2.17188 2.64062 2.28125 3.32812 2.34375C4.04688 2.40625 4.64062 2.45313 5.10938 2.48438C5.67188 2.51562 6.15625 2.53125 6.5625 2.53125C6.96875 2.53125 7.54688 2.5 8.29688 2.4375C8.92188 2.375 9.73438 2.29688 10.7344 2.20312C11.7656 2.10938 13.0312 1.95312 14.5312 1.73438C14.0938 1.85937 13.6875 2.21875 13.3125 2.8125C12.9688 3.375 12.6562 3.98438 12.375 4.64062C12.0312 5.42187 11.7344 6.28125 11.4844 7.21875C11.2656 8.0625 10.9844 9.21875 10.6406 10.6875C10.3281 12.1562 10.0156 13.75 9.70312 15.4688C9.42188 17.1875 9.20312 18.9375 9.04688 20.7188C8.89062 22.4688 8.85938 24.0781 8.95312 25.5469C9.07812 27.0156 9.375 28.2344 9.84375 29.2031C10.3125 30.1406 11.0312 30.6406 12 30.7031C13.4688 30.8281 14.6875 30.8438 15.6562 30.75C16.6562 30.625 17.4688 30.4531 18.0938 30.2344C18.7188 30.0156 19.2031 29.7656 19.5469 29.4844C19.8906 29.1719 20.1562 28.875 20.3438 28.5938C20.8438 27.875 21.3594 26.9531 21.8906 25.8281C22.4219 24.7031 22.8906 23.625 23.2969 22.5938C23.7344 21.5625 24.0938 20.6875 24.375 19.9688C24.6562 19.25 24.7969 18.9062 24.7969 18.9375C24.7969 19 24.7812 19.3594 24.75 20.0156C24.75 20.6406 24.7344 21.4062 24.7031 22.3125C24.7031 23.1875 24.6875 24.1094 24.6562 25.0781C24.6562 26.0469 24.6406 26.875 24.6094 27.5625C24.5781 28.125 24.5469 28.75 24.5156 29.4375C24.4844 30.0312 24.4531 30.7344 24.4219 31.5469C24.4219 32.3594 24.3906 33.25 24.3281 34.2188C23.0156 34.125 21.7656 34.0625 20.5781 34.0312C19.3906 34 18.3438 33.9844 17.4375 33.9844C16.375 33.9844 15.3906 34 14.4844 34.0312C13.5156 34.0625 12.3906 34.1094 11.1094 34.1719C10.0156 34.2344 8.65625 34.3125 7.03125 34.4062C5.40625 34.4688 3.53125 34.5625 1.40625 34.6875C1.65625 34.25 1.85938 33.8438 2.01562 33.4688C2.20312 33.0938 2.34375 32.7812 2.4375 32.5312C2.5625 32.2188 2.64062 31.9531 2.67188 31.7344C2.85938 30.7344 3.01562 29.4688 3.14062 27.9375C3.26562 26.375 3.35938 24.7188 3.42188 22.9688C3.51562 21.2188 3.5625 19.4375 3.5625 17.625C3.59375 15.7812 3.59375 14.0781 3.5625 12.5156C3.53125 10.9531 3.46875 9.59375 3.375 8.4375C3.3125 7.28125 3.21875 6.48438 3.09375 6.04688C2.9375 5.54688 2.75 5.04687 2.53125 4.54688C2.34375 4.10937 2.10938 3.67188 1.82812 3.23438C1.57812 2.76562 1.28125 2.35938 0.9375 2.01562ZM27.4219 15.0469L36.0469 15.1406C35.5469 17.0469 35.1719 18.6719 34.9219 20.0156C34.7031 21.3594 34.5625 22.4844 34.5 23.3906C34.375 24.4219 34.3438 25.2969 34.4062 26.0156C34.5 26.6719 34.6562 27.375 34.875 28.125C35.0625 28.75 35.3438 29.4688 35.7188 30.2812C36.0938 31.0938 36.5938 31.9062 37.2188 32.7188C36.8438 32.5938 36.4375 32.5 36 32.4375C35.5625 32.375 35.1562 32.3281 34.7812 32.2969C34.3438 32.2656 33.9062 32.2656 33.4688 32.2969C33.0312 32.3281 32.5469 32.375 32.0156 32.4375C31.5781 32.5 31.0469 32.5781 30.4219 32.6719C29.7969 32.7656 29.1406 32.8906 28.4531 33.0469C28.9219 31.6406 29.2812 30.4219 29.5312 29.3906C29.8125 28.3594 30.0156 27.5 30.1406 26.8125C30.2656 26 30.3438 25.3438 30.375 24.8438C30.375 24.2188 30.375 23.5156 30.375 22.7344C30.375 21.9219 30.375 21.1406 30.375 20.3906C30.375 19.6406 30.3594 18.9844 30.3281 18.4219C30.2969 17.8281 30.2344 17.4531 30.1406 17.2969L29.6719 16.8281C29.4844 16.6719 29.2031 16.4531 28.8281 16.1719C28.4844 15.8594 28.0156 15.4844 27.4219 15.0469ZM30.75 7.82812C31.4062 7.48438 32.0625 7.39062 32.7188 7.54688C33.4062 7.70312 33.9375 8 34.3125 8.4375C34.6875 8.875 34.8125 9.39062 34.6875 9.98438C34.5938 10.5781 34.0938 11.1562 33.1875 11.7188C32.2812 12.25 31.4844 12.4375 30.7969 12.2812C30.1094 12.125 29.625 11.7969 29.3438 11.2969C29.0625 10.7969 29.0156 10.2188 29.2031 9.5625C29.3906 8.875 29.9062 8.29688 30.75 7.82812ZM38.9062 3.09375C39.625 3.28125 40.2812 3.42188 40.875 3.51562C41.5 3.57813 42.0312 3.625 42.4688 3.65625C43 3.6875 43.4844 3.70312 43.9219 3.70312C44.3594 3.70312 44.9062 3.67188 45.5625 3.60938C46.7188 3.51562 48.3594 3.28125 50.4844 2.90625C50.1406 3.15625 49.8125 3.40625 49.5 3.65625C49.2188 3.875 48.9688 4.09375 48.75 4.3125L48.0469 5.01562C47.6406 5.57812 47.2344 6.53125 46.8281 7.875C46.4844 9.03125 46.1094 10.6562 45.7031 12.75C45.3281 14.8438 44.9844 17.625 44.6719 21.0938C46.2031 19.5938 47.6406 18.4688 48.9844 17.7188C50.3594 16.9375 51.5625 16.375 52.5938 16.0312C53.8125 15.6562 54.9219 15.4531 55.9219 15.4219C57.2031 15.5156 58.3125 15.7812 59.25 16.2188C60.2188 16.625 61.0312 17.125 61.6875 17.7188C62.375 18.2812 62.9219 18.875 63.3281 19.5C63.7656 20.0938 64.0938 20.625 64.3125 21.0938C64.4375 21.4062 64.5312 21.9844 64.5938 22.8281C64.6875 23.6406 64.7031 24.5781 64.6406 25.6406C64.5781 26.7031 64.4062 27.8281 64.125 29.0156C63.875 30.1719 63.4531 31.25 62.8594 32.25C62.2969 33.2188 61.5469 34.0312 60.6094 34.6875C59.7031 35.3438 58.5625 35.7031 57.1875 35.7656C55.5938 35.7656 54.0469 35.5781 52.5469 35.2031C51.2656 34.8906 49.9062 34.3438 48.4688 33.5625C47.0625 32.75 45.8594 31.5938 44.8594 30.0938C44.8594 30.4688 44.8594 30.8438 44.8594 31.2188C44.8594 31.5625 44.875 31.8594 44.9062 32.1094C44.9375 32.4531 44.9688 32.75 45 33C45.0312 33.2812 45.1094 33.5781 45.2344 33.8906C45.3281 34.1406 45.4688 34.4531 45.6562 34.8281C45.875 35.1719 46.1562 35.5156 46.5 35.8594C46.1562 35.8281 45.8125 35.8125 45.4688 35.8125C45.125 35.7812 44.7812 35.7812 44.4375 35.8125C44.0625 35.8438 43.6875 35.875 43.3125 35.9062C42.9375 35.9375 42.5469 35.9844 42.1406 36.0469C41.7969 36.1094 41.3906 36.1875 40.9219 36.2812C40.4531 36.375 39.9688 36.4844 39.4688 36.6094C39.5625 36.3281 39.6406 35.9219 39.7031 35.3906C39.7656 34.8281 39.8281 34.2188 39.8906 33.5625C39.9844 32.875 40.0469 32.1562 40.0781 31.4062C40.1406 30.6562 40.2031 29.9062 40.2656 29.1562C40.3906 27.4375 40.5 25.5625 40.5938 23.5312C40.6875 20.375 40.7031 17.4375 40.6406 14.7188C40.6094 13.5625 40.5469 12.3906 40.4531 11.2031C40.3906 10.0156 40.2969 8.90625 40.1719 7.875C40.0469 6.8125 39.875 5.875 39.6562 5.0625C39.4688 4.21875 39.2188 3.5625 38.9062 3.09375ZM45 25.9219C45.5 26.8281 46.0312 27.6094 46.5938 28.2656C47.1562 28.8906 47.7188 29.4219 48.2812 29.8594C48.8438 30.2969 49.3906 30.6406 49.9219 30.8906C50.4844 31.1406 51.0156 31.3281 51.5156 31.4531C52.6719 31.7656 53.8125 31.7969 54.9375 31.5469C56.0625 31.2344 56.9375 30.6094 57.5625 29.6719C58.1875 28.7344 58.6719 27.6719 59.0156 26.4844C59.1719 25.9219 59.2656 25.2031 59.2969 24.3281C59.3594 23.4531 59.2656 22.6094 59.0156 21.7969C58.7969 20.9531 58.3906 20.2188 57.7969 19.5938C57.2031 18.9375 56.3438 18.5469 55.2188 18.4219C54.4375 18.4219 53.5312 18.6406 52.5 19.0781C51.5938 19.4531 50.5156 20.0781 49.2656 20.9531C48.0156 21.7969 46.5938 23.0625 45 24.75V25.9219ZM66.375 13.5469C66.9688 13.5781 67.5 13.5938 67.9688 13.5938C68.4688 13.5625 68.8906 13.5312 69.2344 13.5C69.6406 13.4688 70 13.4375 70.3125 13.4062C70.7812 13.3438 71.2656 13.2656 71.7656 13.1719C72.2031 13.1094 72.6562 13.0312 73.125 12.9375C73.625 12.8125 74.1094 12.6719 74.5781 12.5156C74.3906 12.9844 74.2344 13.3906 74.1094 13.7344C73.9844 14.0781 73.8906 14.375 73.8281 14.625C73.7344 14.9062 73.6875 15.1406 73.6875 15.3281C73.6562 15.5469 73.6406 15.8125 73.6406 16.125C73.6094 16.6562 73.6094 17.5156 73.6406 18.7031C75.2656 17.2969 76.625 16.2031 77.7188 15.4219C78.8438 14.6406 79.7344 14.0312 80.3906 13.5938C81.1719 13.0938 81.7812 12.7656 82.2188 12.6094C83.375 12.4219 84.3906 12.6875 85.2656 13.4062C85.6406 13.7188 86 14.1406 86.3438 14.6719C86.6875 15.1719 86.9844 15.8438 87.2344 16.6875C87.4844 17.5312 87.6719 18.5469 87.7969 19.7344C87.9219 20.8906 87.9375 22.2812 87.8438 23.9062C87.1875 23.9688 86.5938 24.0312 86.0625 24.0938C85.5625 24.1562 85.1406 24.2031 84.7969 24.2344C84.3906 24.2969 84.0156 24.3281 83.6719 24.3281L82.4062 24.4688C81.9688 24.5312 81.4219 24.5938 80.7656 24.6562C80.1406 24.6875 79.375 24.75 78.4688 24.8438C79.7812 23.7812 80.625 22.8594 81 22.0781C81.4062 21.2656 81.5781 20.5938 81.5156 20.0625C81.4531 19.4688 81.1719 18.9531 80.6719 18.5156C80.0781 18.1719 79.4375 18.0469 78.75 18.1406C78.1562 18.2031 77.4688 18.4688 76.6875 18.9375C75.9062 19.4062 75.0781 20.2812 74.2031 21.5625C74.2656 23.5625 74.3281 25.2188 74.3906 26.5312C74.4844 27.8438 74.5625 28.9062 74.625 29.7188C74.7188 30.6562 74.7969 31.3906 74.8594 31.9219C74.9531 32.3906 75.1406 32.8906 75.4219 33.4219C75.6406 33.8594 75.9531 34.3438 76.3594 34.875C76.7656 35.4062 77.2969 35.9375 77.9531 36.4688C76.5781 36.4062 75.4531 36.4062 74.5781 36.4688C74.0469 36.5 73.5781 36.5312 73.1719 36.5625C72.7344 36.625 72.2656 36.6875 71.7656 36.75C71.3281 36.8125 70.8125 36.875 70.2188 36.9375C69.6562 37.0312 69.0312 37.125 68.3438 37.2188C68.5938 36.875 68.7969 36.4688 68.9531 36C69.1094 35.5625 69.2344 35.1406 69.3281 34.7344C69.4531 34.2656 69.5469 33.7812 69.6094 33.2812C69.6406 32.8438 69.6562 32.1875 69.6562 31.3125C69.6875 30.4375 69.6719 29.4531 69.6094 28.3594C69.5781 27.2344 69.5312 26.0781 69.4688 24.8906C69.4062 23.6719 69.3281 22.5312 69.2344 21.4688C69.1406 20.4062 69.0312 19.4844 68.9062 18.7031C68.8125 17.8906 68.7031 17.3281 68.5781 17.0156C68.4219 16.6406 68.2344 16.2656 68.0156 15.8906C67.8281 15.5469 67.5938 15.1875 67.3125 14.8125C67.0312 14.4062 66.7188 13.9844 66.375 13.5469ZM102.375 15C103.188 15 104.031 15.1562 104.906 15.4688C105.781 15.75 106.625 16.125 107.438 16.5938C108.25 17.0312 108.984 17.5156 109.641 18.0469C110.328 18.5469 110.891 19.0312 111.328 19.5C112.109 20.3438 112.641 21.4844 112.922 22.9219C113.234 24.3281 113.297 25.7812 113.109 27.2812C112.922 28.75 112.484 30.1406 111.797 31.4531C111.109 32.7656 110.156 33.7344 108.938 34.3594C108.062 34.7969 107.203 35.1406 106.359 35.3906C105.516 35.6406 104.703 35.8281 103.922 35.9531C103.141 36.0781 102.406 36.1406 101.719 36.1406C101.031 36.1406 100.438 36.125 99.9375 36.0938C99 36.0312 98.0156 35.7031 96.9844 35.1094C95.9844 34.5156 95.0312 33.7812 94.125 32.9062C93.25 32.0312 92.5 31.0781 91.875 30.0469C91.25 28.9844 90.875 27.9844 90.75 27.0469C90.5625 25.7656 90.5312 24.4219 90.6562 23.0156C90.7812 21.6094 91.2344 20.3125 92.0156 19.125C92.8281 17.9375 94.0469 16.9531 95.6719 16.1719C97.3281 15.3906 99.5625 15 102.375 15ZM100.828 33.1875C101.172 33.25 101.641 33.1719 102.234 32.9531C102.828 32.7031 103.406 32.3125 103.969 31.7812C104.562 31.25 105.078 30.5781 105.516 29.7656C105.984 28.9219 106.266 27.9062 106.359 26.7188C106.453 25.5625 106.453 24.5 106.359 23.5312C106.297 22.5625 106.156 21.7188 105.938 21C105.719 20.25 105.469 19.6406 105.188 19.1719C104.906 18.7031 104.609 18.375 104.297 18.1875C103.766 17.9062 103.125 17.6875 102.375 17.5312C101.625 17.3438 100.984 17.375 100.453 17.625C100.203 17.75 99.8906 18.0156 99.5156 18.4219C99.1406 18.8281 98.7656 19.3438 98.3906 19.9688C98.0156 20.5625 97.6719 21.25 97.3594 22.0312C97.0781 22.8125 96.875 23.625 96.75 24.4688C96.625 25.3125 96.5938 26.2188 96.6562 27.1875C96.75 28.1562 96.9531 29.0781 97.2656 29.9531C97.5781 30.7969 98.0156 31.5312 98.5781 32.1562C99.1719 32.75 99.9219 33.0938 100.828 33.1875Z" fill="white"/>
<path d="M113.719 1.78125C115.812 2.03125 117.625 2.21875 119.156 2.34375C120.688 2.4375 121.953 2.51562 122.953 2.57812C124.109 2.64063 125.078 2.65625 125.859 2.625C126.672 2.59375 127.781 2.51562 129.188 2.39062C130.375 2.29688 131.938 2.17188 133.875 2.01562C135.812 1.82812 138.234 1.57812 141.141 1.26562C141.172 1.98438 141.188 2.6875 141.188 3.375C141.219 4.03125 141.25 4.60938 141.281 5.10938C141.312 5.70312 141.328 6.25 141.328 6.75C141.328 7.28125 141.297 7.95312 141.234 8.76562C141.172 9.45312 141.062 10.3281 140.906 11.3906C140.781 12.4219 140.578 13.6562 140.297 15.0938C139.859 13.4062 139.438 12.0469 139.031 11.0156C138.625 9.95312 138.25 9.10938 137.906 8.48438C137.531 7.76562 137.156 7.21875 136.781 6.84375C136.375 6.5625 135.891 6.32812 135.328 6.14062C134.828 5.98437 134.188 5.85938 133.406 5.76562C132.656 5.67188 131.766 5.6875 130.734 5.8125C130.578 9.9375 130.469 13.2812 130.406 15.8438C130.344 18.4062 130.297 20.4062 130.266 21.8438C130.234 23.5625 130.219 24.7969 130.219 25.5469C130.25 26.6094 130.422 27.6562 130.734 28.6875C130.984 29.5625 131.391 30.4688 131.953 31.4062C132.516 32.3438 133.328 33.1719 134.391 33.8906H128.672C128.141 33.8906 127.484 33.9219 126.703 33.9844C126.047 34.0469 125.203 34.1094 124.172 34.1719C123.172 34.2344 122 34.3438 120.656 34.5C121.125 33.6875 121.5 32.9531 121.781 32.2969C122.062 31.6406 122.281 31.0781 122.438 30.6094C122.625 30.0469 122.766 29.5469 122.859 29.1094C122.891 28.4844 122.969 27.2188 123.094 25.3125C123.125 24.5312 123.156 23.5625 123.188 22.4062C123.25 21.25 123.312 19.875 123.375 18.2812C123.469 16.6875 123.547 14.8594 123.609 12.7969C123.703 10.7031 123.797 8.34375 123.891 5.71875C123.328 5.5625 122.797 5.57812 122.297 5.76562C121.797 5.92188 121.359 6.125 120.984 6.375C120.547 6.6875 120.125 7.0625 119.719 7.5C119.312 8.03125 118.859 8.71875 118.359 9.5625C117.922 10.2812 117.422 11.2344 116.859 12.4219C116.297 13.5781 115.656 15.0156 114.938 16.7344C114.781 14.9219 114.672 13.4375 114.609 12.2812C114.547 11.0938 114.5 10.1719 114.469 9.51562C114.438 8.73438 114.422 8.15625 114.422 7.78125C114.422 7.4375 114.391 6.98438 114.328 6.42188C114.266 5.95312 114.188 5.34375 114.094 4.59375C114 3.8125 113.875 2.875 113.719 1.78125ZM150.891 28.4531C151.766 28.4531 152.578 28.3594 153.328 28.1719C153.953 28.0156 154.547 27.7656 155.109 27.4219C155.703 27.0469 156.094 26.5 156.281 25.7812C156.906 25.9062 157.438 26.0156 157.875 26.1094C158.312 26.1719 158.688 26.2344 159 26.2969C159.344 26.3906 159.641 26.4531 159.891 26.4844C160.141 26.5469 160.438 26.6094 160.781 26.6719C161.094 26.7344 161.469 26.8125 161.906 26.9062C162.375 26.9688 162.922 27.0625 163.547 27.1875C163.078 27.125 162.594 27.1719 162.094 27.3281C161.625 27.4844 161.172 27.6562 160.734 27.8438C160.234 28.0625 159.766 28.3281 159.328 28.6406C159.047 28.8281 158.719 29.1094 158.344 29.4844C158 29.8594 157.5 30.2188 156.844 30.5625C156.188 30.9062 155.312 31.2031 154.219 31.4531C153.156 31.6719 151.781 31.75 150.094 31.6875C148.062 31.625 146.359 31.2656 144.984 30.6094C143.609 29.9219 142.5 29.0938 141.656 28.125C140.812 27.125 140.203 26.0469 139.828 24.8906C139.453 23.7344 139.25 22.6562 139.219 21.6562C139.188 20.6562 139.484 19.6094 140.109 18.5156C140.734 17.4219 141.609 16.4219 142.734 15.5156C143.891 14.6094 145.281 13.875 146.906 13.3125C148.531 12.7188 150.312 12.4219 152.25 12.4219C153.375 12.4219 154.406 12.5625 155.344 12.8438C156.312 13.0938 157.188 13.4375 157.969 13.875C158.781 14.3125 159.484 14.8125 160.078 15.375C160.672 15.9062 161.172 16.4531 161.578 17.0156C161.984 17.6094 162.328 18.2344 162.609 18.8906C162.859 19.4531 163.062 20.0938 163.219 20.8125C163.375 21.5312 163.422 22.2656 163.359 23.0156C160.984 23.0781 159.062 23.125 157.594 23.1562C156.156 23.1875 155.031 23.2031 154.219 23.2031H152.109H150.516C149.953 23.2031 149.219 23.2188 148.312 23.25C147.406 23.2812 146.297 23.3281 144.984 23.3906C145.141 24.6406 145.531 25.6094 146.156 26.2969C146.812 26.9531 147.5 27.4531 148.219 27.7969C149.031 28.1719 149.922 28.3906 150.891 28.4531ZM146.672 20.0156C147.672 20.0781 148.5 20.125 149.156 20.1562C149.844 20.1875 150.406 20.2188 150.844 20.25C151.312 20.2812 151.688 20.2969 151.969 20.2969H153.141C153.922 20.2969 155.375 20.25 157.5 20.1562C157.406 18.7812 157.109 17.7344 156.609 17.0156C156.141 16.2969 155.641 15.7656 155.109 15.4219C154.484 15.0469 153.797 14.8281 153.047 14.7656C151.016 14.7969 149.5 15.2188 148.5 16.0312C147.531 16.8438 146.922 18.1719 146.672 20.0156ZM168.75 17.0156C168.906 16.8281 169 16.4844 169.031 15.9844C169.094 15.4531 169.219 14.8594 169.406 14.2031C169.625 13.5469 169.984 12.8594 170.484 12.1406C170.984 11.4219 171.797 10.75 172.922 10.125C174.016 9.5 175.078 9.125 176.109 9C177.141 8.875 178.125 8.92188 179.062 9.14062C180 9.35938 180.875 9.70312 181.688 10.1719C182.531 10.6406 183.297 11.1562 183.984 11.7188C184.453 12.0938 184.828 12.6406 185.109 13.3594C185.391 14.0469 185.609 14.8281 185.766 15.7031C185.922 16.5781 186.031 17.5 186.094 18.4688C186.188 19.4062 186.25 20.3281 186.281 21.2344C186.312 22.1094 186.328 22.9219 186.328 23.6719C186.359 24.3906 186.422 24.9844 186.516 25.4531C186.641 26.1406 186.859 26.7344 187.172 27.2344C187.484 27.7031 187.828 28.1094 188.203 28.4531C188.578 28.7656 188.953 29.0156 189.328 29.2031C189.703 29.3906 190.031 29.5312 190.312 29.625C190.5 29.7188 190.672 29.7812 190.828 29.8125C191.141 29.9375 191.359 29.9375 191.484 29.8125C191.297 30.25 191.125 30.625 190.969 30.9375C190.812 31.25 190.688 31.5156 190.594 31.7344C190.469 31.9844 190.359 32.1875 190.266 32.3438C190.172 32.5312 190.062 32.7031 189.938 32.8594C189.844 33.0156 189.719 33.1875 189.562 33.375C189.406 33.5625 189.25 33.7656 189.094 33.9844C188.688 33.8281 188.297 33.6406 187.922 33.4219C187.578 33.2031 187.266 33 186.984 32.8125C186.641 32.5938 186.328 32.375 186.047 32.1562C185.766 31.9375 185.5 31.6875 185.25 31.4062C185.031 31.1562 184.797 30.8906 184.547 30.6094C184.328 30.3281 184.141 30.0156 183.984 29.6719C183.797 30.0781 183.344 30.6562 182.625 31.4062C181.938 32.1562 181.031 32.8438 179.906 33.4688C178.781 34.0625 177.469 34.4844 175.969 34.7344C174.5 34.9844 172.875 34.8125 171.094 34.2188C170.312 33.9688 169.578 33.6094 168.891 33.1406C168.203 32.6406 167.609 32.0469 167.109 31.3594C166.641 30.6719 166.297 29.8906 166.078 29.0156C165.891 28.1094 165.906 27.1094 166.125 26.0156C166.344 24.9219 166.734 24 167.297 23.25C167.859 22.5 168.531 21.8906 169.312 21.4219C170.094 20.9531 170.969 20.5938 171.938 20.3438C172.906 20.0938 173.906 19.9219 174.938 19.8281C175.75 19.7969 176.562 19.8438 177.375 19.9688C178.062 20.0938 178.781 20.3281 179.531 20.6719C180.281 20.9844 180.922 21.4688 181.453 22.125C181.422 20.4688 181.359 19.1562 181.266 18.1875C181.203 17.1875 181.141 16.4219 181.078 15.8906C180.953 15.2656 180.844 14.8281 180.75 14.5781C180.594 14.3594 180.422 14.1094 180.234 13.8281C180.078 13.5469 179.875 13.2969 179.625 13.0781C179.375 12.8281 179.062 12.625 178.688 12.4688C178.312 12.3125 177.875 12.25 177.375 12.2812C176.844 12.3125 176.422 12.4531 176.109 12.7031C175.797 12.9531 175.547 13.25 175.359 13.5938C175.203 13.9062 175.109 14.25 175.078 14.625C175.047 15 175.062 15.3281 175.125 15.6094C175.188 15.7969 175.281 16 175.406 16.2188C175.531 16.4062 175.703 16.6094 175.922 16.8281C176.141 17.0469 176.438 17.2344 176.812 17.3906C176.094 17.4844 175.453 17.5625 174.891 17.625C174.328 17.6562 173.844 17.7031 173.438 17.7656C172.969 17.8281 172.562 17.875 172.219 17.9062C171.875 17.9375 171.469 18 171 18.0938C170.594 18.1562 170.094 18.2344 169.5 18.3281C168.906 18.4219 168.219 18.5469 167.438 18.7031C167.625 18.4844 167.797 18.2812 167.953 18.0938C168.109 17.875 168.25 17.6875 168.375 17.5312C168.5 17.3438 168.625 17.1719 168.75 17.0156ZM175.781 22.5938C175.219 22.625 174.656 22.7656 174.094 23.0156C173.531 23.2344 173.031 23.5625 172.594 24C172.156 24.4062 171.781 24.8906 171.469 25.4531C171.188 25.9844 171.047 26.5781 171.047 27.2344C171.047 27.8906 171.203 28.4688 171.516 28.9688C171.859 29.4375 172.297 29.8281 172.828 30.1406C173.391 30.4531 173.984 30.6406 174.609 30.7031C175.266 30.7656 175.906 30.7031 176.531 30.5156C177.125 30.2969 177.688 29.9531 178.219 29.4844C178.75 28.9844 179.203 28.4531 179.578 27.8906C179.953 27.2969 180.219 26.7188 180.375 26.1562C180.531 25.5625 180.547 25.0781 180.422 24.7031C180.172 23.8906 179.609 23.3281 178.734 23.0156C177.859 22.6719 176.875 22.5312 175.781 22.5938ZM217.219 19.3594C216.844 19.2969 216.375 19.25 215.812 19.2188C215.281 19.1875 214.766 19.1719 214.266 19.1719C213.703 19.1719 213.109 19.1875 212.484 19.2188C211.828 19.25 211.172 19.2812 210.516 19.3125C209.953 19.3438 209.312 19.3906 208.594 19.4531C207.906 19.4844 207.234 19.5312 206.578 19.5938C206.828 19.4688 207.047 19.2969 207.234 19.0781C207.453 18.8594 207.641 18.6406 207.797 18.4219C207.953 18.1719 208.094 17.9062 208.219 17.625C208.375 17.1562 208.359 16.5938 208.172 15.9375C207.984 15.25 207.641 14.625 207.141 14.0625C206.672 13.5 206.062 13.0625 205.312 12.75C204.594 12.4062 203.797 12.3281 202.922 12.5156C201.984 12.7344 201.141 13.0625 200.391 13.5C199.672 13.9375 199.062 14.5469 198.562 15.3281C198.094 16.0781 197.75 17.0156 197.531 18.1406C197.344 19.2344 197.297 20.5469 197.391 22.0781C197.516 23.9844 197.828 25.5 198.328 26.625C198.828 27.75 199.438 28.5938 200.156 29.1562C200.875 29.7188 201.656 30.0625 202.5 30.1875C203.375 30.2812 204.234 30.2812 205.078 30.1875C205.672 30.0625 206.219 29.7969 206.719 29.3906C207.125 29.0469 207.5 28.5469 207.844 27.8906C208.188 27.2344 208.344 26.3281 208.312 25.1719L214.031 24.9375C213.375 26.7812 212.578 28.25 211.641 29.3438C210.703 30.4062 209.797 31.2344 208.922 31.8281C207.891 32.5156 206.859 32.9844 205.828 33.2344C204.547 33.4531 203.406 33.5469 202.406 33.5156C201.406 33.4531 200.5 33.2969 199.688 33.0469C198.875 32.7969 198.125 32.4844 197.438 32.1094C196.75 31.7344 196.094 31.3281 195.469 30.8906C195.062 30.6094 194.609 30.1406 194.109 29.4844C193.609 28.8281 193.141 28.0469 192.703 27.1406C192.266 26.2031 191.906 25.1719 191.625 24.0469C191.344 22.9219 191.234 21.7656 191.297 20.5781C191.359 19.3594 191.641 18.1406 192.141 16.9219C192.641 15.7031 193.438 14.5312 194.531 13.4062C196.188 11.7188 197.953 10.625 199.828 10.125C201.734 9.59375 203.531 9.45312 205.219 9.70312C206.906 9.92188 208.406 10.4062 209.719 11.1562C211.031 11.9062 211.953 12.7188 212.484 13.5938C213.016 14.4688 213.406 15.1406 213.656 15.6094C213.938 16.0469 214.141 16.3906 214.266 16.6406C214.422 16.8594 214.547 17.0312 214.641 17.1562C214.766 17.25 214.938 17.3906 215.156 17.5781C215.312 17.7344 215.5 17.9062 215.719 18.0938C215.906 18.25 216.125 18.4375 216.375 18.6562C216.625 18.875 216.906 19.1094 217.219 19.3594ZM216.281 0.46875C217 0.59375 217.656 0.6875 218.25 0.75C218.844 0.78125 219.344 0.8125 219.75 0.84375C220.219 0.875 220.625 0.890625 220.969 0.890625C221.438 0.859375 221.984 0.8125 222.609 0.75C223.141 0.6875 223.781 0.609375 224.531 0.515625C225.312 0.421875 226.203 0.296875 227.203 0.140625C226.734 0.390625 226.344 0.640625 226.031 0.890625C225.719 1.10937 225.469 1.34375 225.281 1.59375C225.062 1.875 224.891 2.14062 224.766 2.39062C224.609 2.79687 224.438 3.64062 224.25 4.92188C224.062 6.01562 223.828 7.64062 223.547 9.79688C223.297 11.9531 222.969 14.875 222.562 18.5625C223.688 17.4375 224.75 16.5938 225.75 16.0312C226.781 15.4375 227.688 15.0156 228.469 14.7656C229.375 14.4844 230.219 14.3438 231 14.3438C231.969 14.4375 232.953 14.75 233.953 15.2812C234.984 15.7812 235.938 16.375 236.812 17.0625C237.719 17.75 238.5 18.4844 239.156 19.2656C239.844 20.0469 240.328 20.7344 240.609 21.3281C240.797 21.7344 240.891 22.2656 240.891 22.9219C240.891 23.5469 240.828 24.2344 240.703 24.9844C240.578 25.7344 240.406 26.5 240.188 27.2812C239.969 28.0625 239.75 28.7969 239.531 29.4844C239.344 30.1719 239.172 30.7812 239.016 31.3125C238.859 31.8125 238.766 32.1719 238.734 32.3906C238.672 32.8594 238.703 33.3125 238.828 33.75C238.922 34.125 239.109 34.5312 239.391 34.9688C239.672 35.375 240.094 35.7188 240.656 36C240.219 35.9375 239.75 35.8906 239.25 35.8594C238.781 35.7969 238.328 35.75 237.891 35.7188C237.391 35.6875 236.891 35.6719 236.391 35.6719H234.703C234.172 35.6719 233.562 35.6875 232.875 35.7188C232.188 35.7188 231.438 35.7344 230.625 35.7656C231.062 35.6094 231.438 35.4062 231.75 35.1562C232.062 34.875 232.328 34.6094 232.547 34.3594C232.797 34.0781 233.016 33.7812 233.203 33.4688C233.328 33.2188 233.484 32.75 233.672 32.0625C233.859 31.3438 234.031 30.5312 234.188 29.625C234.344 28.6875 234.453 27.7031 234.516 26.6719C234.609 25.6406 234.625 24.6562 234.562 23.7188C234.531 22.75 234.391 21.8906 234.141 21.1406C233.922 20.3906 233.578 19.8438 233.109 19.5C231.703 18.4375 230.422 17.9219 229.266 17.9531C228.141 17.9531 227.062 18.4062 226.031 19.3125C225.656 19.6562 225.297 20 224.953 20.3438C224.641 20.6562 224.297 21.0312 223.922 21.4688C223.547 21.875 223.203 22.2969 222.891 22.7344C222.891 23.2031 222.906 23.7188 222.938 24.2812C222.969 24.8438 223 25.3906 223.031 25.9219C223.062 26.5156 223.109 27.1094 223.172 27.7031C223.234 28.6094 223.328 29.5 223.453 30.375C223.547 31.125 223.672 31.9531 223.828 32.8594C223.984 33.7344 224.188 34.5312 224.438 35.25C224.031 35.1875 223.609 35.1719 223.172 35.2031C222.734 35.2031 222.312 35.2031 221.906 35.2031C221.438 35.2344 220.984 35.25 220.547 35.25C220.141 35.2812 219.719 35.3281 219.281 35.3906C218.906 35.4531 218.5 35.5156 218.062 35.5781C217.625 35.6094 217.203 35.6719 216.797 35.7656C217.172 35.0469 217.484 34.3438 217.734 33.6562C217.984 32.9375 218.188 32.3125 218.344 31.7812C218.531 31.1562 218.688 30.5469 218.812 29.9531C218.906 29.4844 218.969 28.5938 219 27.2812C219.062 25.9375 219.109 24.4062 219.141 22.6875C219.172 20.9375 219.188 19.0938 219.188 17.1562C219.188 15.2188 219.172 13.375 219.141 11.625C219.109 9.875 219.047 8.34375 218.953 7.03125C218.891 5.71875 218.812 4.8125 218.719 4.3125C218.594 3.8125 218.422 3.3125 218.203 2.8125C218.016 2.375 217.766 1.95312 217.453 1.54688C217.141 1.10937 216.75 0.75 216.281 0.46875Z" fill="black"/>
</svg>
