<svg width="270" height="41" viewBox="0 0 270 41" fill="none" xmlns="http://www.w3.org/2000/svg">
<path d="M0.92 31V3H5.24V26.84H18.36V31H0.92ZM24.5053 31V10H28.6253V31H24.5053ZM26.5053 5.36C25.6253 5.36 24.9453 5.13333 24.4653 4.68C23.9853 4.22667 23.7453 3.58667 23.7453 2.76C23.7453 1.98667 23.9853 1.36 24.4653 0.879999C24.972 0.399999 25.652 0.159999 26.5053 0.159999C27.3853 0.159999 28.0653 0.386666 28.5453 0.84C29.0253 1.29333 29.2653 1.93333 29.2653 2.76C29.2653 3.53333 29.012 4.16 28.5053 4.64C28.0253 5.12 27.3586 5.36 26.5053 5.36ZM45.9981 31.4C45.0915 31.4 44.1848 31.2533 43.2781 30.96C42.3981 30.6667 41.5848 30.28 40.8381 29.8C40.1181 29.2933 39.5048 28.7467 38.9981 28.16C38.5181 27.5467 38.1981 26.9333 38.0381 26.32L39.0781 25.76V30.88H34.9581V1.4H39.0781V14.8L38.4381 14.44C38.5715 13.8267 38.8648 13.24 39.3181 12.68C39.7715 12.0933 40.3448 11.5733 41.0381 11.12C41.7581 10.64 42.5315 10.2667 43.3581 10C44.1848 9.70667 45.0248 9.56 45.8781 9.56C47.7715 9.56 49.4515 10.0267 50.9181 10.96C52.3848 11.8933 53.5448 13.1867 54.3981 14.84C55.2515 16.4667 55.6781 18.3333 55.6781 20.44C55.6781 22.5467 55.2515 24.4267 54.3981 26.08C53.5715 27.7333 52.4248 29.04 50.9581 30C49.4915 30.9333 47.8381 31.4 45.9981 31.4ZM45.3181 27.64C46.5448 27.64 47.6381 27.3333 48.5981 26.72C49.5581 26.08 50.3181 25.2267 50.8781 24.16C51.4381 23.0667 51.7181 21.8267 51.7181 20.44C51.7181 19.08 51.4381 17.8667 50.8781 16.8C50.3448 15.7067 49.5981 14.8533 48.6381 14.24C47.6781 13.6267 46.5715 13.32 45.3181 13.32C44.0648 13.32 42.9581 13.6267 41.9981 14.24C41.0381 14.8533 40.2781 15.7067 39.7181 16.8C39.1581 17.8667 38.8781 19.08 38.8781 20.44C38.8781 21.8267 39.1581 23.0667 39.7181 24.16C40.2781 25.2267 41.0381 26.08 41.9981 26.72C42.9581 27.3333 44.0648 27.64 45.3181 27.64ZM60.1534 31V10H64.3134V16.6L63.9134 15C64.2068 13.9867 64.7001 13.0667 65.3934 12.24C66.1134 11.4133 66.9268 10.76 67.8334 10.28C68.7668 9.8 69.7268 9.56 70.7134 9.56C71.1668 9.56 71.5934 9.6 71.9934 9.68C72.4201 9.76 72.7534 9.85333 72.9934 9.96L71.9134 14.44C71.5934 14.3067 71.2334 14.2 70.8334 14.12C70.4601 14.0133 70.0868 13.96 69.7134 13.96C68.9934 13.96 68.3001 14.1067 67.6334 14.4C66.9934 14.6667 66.4201 15.0533 65.9134 15.56C65.4334 16.04 65.0468 16.6133 64.7534 17.28C64.4601 17.92 64.3134 18.6267 64.3134 19.4V31H60.1534ZM83.4678 31.4C81.7345 31.4 80.1478 30.92 78.7078 29.96C77.2945 29 76.1611 27.6933 75.3078 26.04C74.4545 24.3867 74.0278 22.52 74.0278 20.44C74.0278 18.3333 74.4545 16.4667 75.3078 14.84C76.1878 13.1867 77.3611 11.8933 78.8278 10.96C80.3211 10.0267 81.9878 9.56 83.8278 9.56C84.9211 9.56 85.9211 9.72 86.8278 10.04C87.7345 10.36 88.5211 10.8133 89.1878 11.4C89.8811 11.96 90.4411 12.6133 90.8678 13.36C91.3211 14.1067 91.6011 14.9067 91.7078 15.76L90.7878 15.44V10H94.9478V31H90.7878V26L91.7478 25.72C91.5878 26.44 91.2545 27.1467 90.7478 27.84C90.2678 28.5067 89.6411 29.1067 88.8678 29.64C88.1211 30.1733 87.2811 30.6 86.3478 30.92C85.4411 31.24 84.4811 31.4 83.4678 31.4ZM84.5478 27.6C85.8011 27.6 86.9078 27.2933 87.8678 26.68C88.8278 26.0667 89.5745 25.2267 90.1078 24.16C90.6678 23.0667 90.9478 21.8267 90.9478 20.44C90.9478 19.08 90.6678 17.8667 90.1078 16.8C89.5745 15.7333 88.8278 14.8933 87.8678 14.28C86.9078 13.6667 85.8011 13.36 84.5478 13.36C83.3211 13.36 82.2278 13.6667 81.2678 14.28C80.3345 14.8933 79.5878 15.7333 79.0278 16.8C78.4945 17.8667 78.2278 19.08 78.2278 20.44C78.2278 21.8267 78.4945 23.0667 79.0278 24.16C79.5878 25.2267 80.3345 26.0667 81.2678 26.68C82.2278 27.2933 83.3211 27.6 84.5478 27.6ZM100.7 31V10H104.86V16.6L104.46 15C104.754 13.9867 105.247 13.0667 105.94 12.24C106.66 11.4133 107.474 10.76 108.38 10.28C109.314 9.8 110.274 9.56 111.26 9.56C111.714 9.56 112.14 9.6 112.54 9.68C112.967 9.76 113.3 9.85333 113.54 9.96L112.46 14.44C112.14 14.3067 111.78 14.2 111.38 14.12C111.007 14.0133 110.634 13.96 110.26 13.96C109.54 13.96 108.847 14.1067 108.18 14.4C107.54 14.6667 106.967 15.0533 106.46 15.56C105.98 16.04 105.594 16.6133 105.3 17.28C105.007 17.92 104.86 18.6267 104.86 19.4V31H100.7ZM120.353 40.2L124.593 30.4L124.633 33.68L114.153 10H118.953L125.513 25.44C125.646 25.7067 125.806 26.12 125.993 26.68C126.18 27.2133 126.34 27.7467 126.473 28.28L125.433 28.52C125.646 27.96 125.846 27.4 126.033 26.84C126.246 26.28 126.446 25.72 126.633 25.16L132.113 10H136.993L128.353 31L124.793 40.2H120.353ZM160.046 31.4C158.126 31.4 156.406 30.9333 154.886 30C153.393 29.04 152.206 27.7467 151.326 26.12C150.446 24.4667 150.006 22.5867 150.006 20.48C150.006 18.3733 150.433 16.5067 151.286 14.88C152.166 13.2267 153.353 11.9333 154.846 11C156.34 10.04 158.033 9.56 159.926 9.56C160.966 9.56 161.966 9.73333 162.926 10.08C163.913 10.4 164.793 10.8533 165.566 11.44C166.34 12 166.94 12.6267 167.366 13.32C167.82 13.9867 168.046 14.6667 168.046 15.36L166.846 15.44V1.4H170.966V31H166.846V26H167.646C167.646 26.64 167.433 27.28 167.006 27.92C166.58 28.5333 166.006 29.1067 165.286 29.64C164.593 30.1733 163.78 30.6 162.846 30.92C161.94 31.24 161.006 31.4 160.046 31.4ZM160.606 27.84C161.86 27.84 162.966 27.52 163.926 26.88C164.886 26.24 165.633 25.3733 166.166 24.28C166.726 23.16 167.006 21.8933 167.006 20.48C167.006 19.0667 166.726 17.8133 166.166 16.72C165.633 15.6 164.886 14.72 163.926 14.08C162.966 13.44 161.86 13.12 160.606 13.12C159.353 13.12 158.246 13.44 157.286 14.08C156.326 14.72 155.566 15.6 155.006 16.72C154.473 17.8133 154.206 19.0667 154.206 20.48C154.206 21.8933 154.473 23.16 155.006 24.28C155.566 25.3733 156.326 26.24 157.286 26.88C158.246 27.52 159.353 27.84 160.606 27.84ZM177.318 31V10H181.438V31H177.318ZM179.318 5.36C178.438 5.36 177.758 5.13333 177.278 4.68C176.798 4.22667 176.558 3.58667 176.558 2.76C176.558 1.98667 176.798 1.36 177.278 0.879999C177.784 0.399999 178.464 0.159999 179.318 0.159999C180.198 0.159999 180.878 0.386666 181.358 0.84C181.838 1.29333 182.078 1.93333 182.078 2.76C182.078 3.53333 181.824 4.16 181.318 4.64C180.838 5.12 180.171 5.36 179.318 5.36ZM197.171 40.2C195.677 40.2 194.184 39.96 192.691 39.48C191.224 39.0267 190.037 38.4267 189.131 37.68L190.651 34.48C191.184 34.88 191.811 35.2267 192.531 35.52C193.251 35.84 194.011 36.08 194.811 36.24C195.611 36.4267 196.397 36.52 197.171 36.52C198.637 36.52 199.864 36.28 200.851 35.8C201.837 35.32 202.584 34.6133 203.091 33.68C203.597 32.7467 203.851 31.5867 203.851 30.2V26.16L204.291 26.44C204.157 27.2667 203.717 28.0667 202.971 28.84C202.251 29.5867 201.344 30.2 200.251 30.68C199.157 31.16 198.037 31.4 196.891 31.4C194.891 31.4 193.104 30.9333 191.531 30C189.984 29.04 188.757 27.7467 187.851 26.12C186.944 24.4667 186.491 22.5867 186.491 20.48C186.491 18.3733 186.931 16.5067 187.811 14.88C188.717 13.2267 189.944 11.9333 191.491 11C193.064 10.04 194.824 9.56 196.771 9.56C197.571 9.56 198.344 9.66667 199.091 9.88C199.837 10.0667 200.531 10.3467 201.171 10.72C201.811 11.0667 202.384 11.4533 202.891 11.88C203.397 12.3067 203.811 12.76 204.131 13.24C204.451 13.72 204.651 14.1733 204.731 14.6L203.851 14.92V10H207.971V29.72C207.971 31.4 207.717 32.88 207.211 34.16C206.731 35.4667 206.024 36.56 205.091 37.44C204.157 38.3467 203.024 39.0267 201.691 39.48C200.357 39.96 198.851 40.2 197.171 40.2ZM197.331 27.6C198.637 27.6 199.797 27.2933 200.811 26.68C201.824 26.0667 202.611 25.2267 203.171 24.16C203.731 23.0933 204.011 21.8667 204.011 20.48C204.011 19.0933 203.717 17.8667 203.131 16.8C202.571 15.7067 201.784 14.8533 200.771 14.24C199.784 13.6267 198.637 13.32 197.331 13.32C196.051 13.32 194.904 13.64 193.891 14.28C192.904 14.8933 192.117 15.7467 191.531 16.84C190.971 17.9067 190.691 19.12 190.691 20.48C190.691 21.84 190.971 23.0667 191.531 24.16C192.117 25.2267 192.904 26.0667 193.891 26.68C194.904 27.2933 196.051 27.6 197.331 27.6ZM214.427 31V10H218.547V31H214.427ZM216.427 5.36C215.547 5.36 214.867 5.13333 214.387 4.68C213.907 4.22667 213.667 3.58667 213.667 2.76C213.667 1.98667 213.907 1.36 214.387 0.879999C214.894 0.399999 215.574 0.159999 216.427 0.159999C217.307 0.159999 217.987 0.386666 218.467 0.84C218.947 1.29333 219.187 1.93333 219.187 2.76C219.187 3.53333 218.934 4.16 218.427 4.64C217.947 5.12 217.281 5.36 216.427 5.36ZM227.48 31V4.64H231.6V31H227.48ZM223.12 14V10H236.48V14H223.12ZM248.116 31.4C246.383 31.4 244.796 30.92 243.356 29.96C241.943 29 240.81 27.6933 239.956 26.04C239.103 24.3867 238.676 22.52 238.676 20.44C238.676 18.3333 239.103 16.4667 239.956 14.84C240.836 13.1867 242.01 11.8933 243.476 10.96C244.97 10.0267 246.636 9.56 248.476 9.56C249.57 9.56 250.57 9.72 251.476 10.04C252.383 10.36 253.17 10.8133 253.836 11.4C254.53 11.96 255.09 12.6133 255.516 13.36C255.97 14.1067 256.25 14.9067 256.356 15.76L255.436 15.44V10H259.596V31H255.436V26L256.396 25.72C256.236 26.44 255.903 27.1467 255.396 27.84C254.916 28.5067 254.29 29.1067 253.516 29.64C252.77 30.1733 251.93 30.6 250.996 30.92C250.09 31.24 249.13 31.4 248.116 31.4ZM249.196 27.6C250.45 27.6 251.556 27.2933 252.516 26.68C253.476 26.0667 254.223 25.2267 254.756 24.16C255.316 23.0667 255.596 21.8267 255.596 20.44C255.596 19.08 255.316 17.8667 254.756 16.8C254.223 15.7333 253.476 14.8933 252.516 14.28C251.556 13.6667 250.45 13.36 249.196 13.36C247.97 13.36 246.876 13.6667 245.916 14.28C244.983 14.8933 244.236 15.7333 243.676 16.8C243.143 17.8667 242.876 19.08 242.876 20.44C242.876 21.8267 243.143 23.0667 243.676 24.16C244.236 25.2267 244.983 26.0667 245.916 26.68C246.876 27.2933 247.97 27.6 249.196 27.6ZM265.429 31V1.4H269.549V31H265.429Z" fill="white"/>
</svg>
